<?xml version="1.0" encoding="UTF-8"?><svg id="a" xmlns="http://www.w3.org/2000/svg" viewBox="0 0 467.14 81.36"><defs><style>.b{fill:#fff;}</style></defs><path class="b" d="M198.28,45.63h11.28v4.82h-11.28v13.92h-8.74V30.65h23.11v4.82h-14.37v10.17Z"/><path class="b" d="M216.87,30.65h8.74v28.91h14.37v4.82h-23.11V30.65Z"/><path class="b" d="M269.18,64.37h-8.82l-1.51-6.12h-10.72l-1.51,6.12h-8.02l8.89-33.73h12.79l8.89,33.73Zm-19.93-10.7h8.42l-4.13-17.06h-.16l-4.13,17.06Z"/><path class="b" d="M283.9,64.76c-8.5,0-12.87-3.08-12.87-8.48v-1.06h8.26v1.4c0,2.41,1.59,3.32,4.37,3.32s4.37-.92,4.37-3.32-1.75-4.29-7.46-7.32c-7.31-3.9-9.61-6.7-9.61-10.55,0-5.4,4.45-8.48,13.02-8.48s13.02,3.08,13.02,8.48v2.07h-8.26v-2.41c0-2.41-1.75-3.28-4.53-3.28s-4.53,.87-4.53,3.28,1.75,4.29,7.47,7.32c7.31,3.9,9.61,6.7,9.61,10.55,0,5.4-4.37,8.48-12.87,8.48Z"/><path class="b" d="M308.8,64.38h-8.74V30.65h8.74v14.45h9.93v-14.45h8.89v33.73h-8.89v-14.45h-9.93v14.45Z"/><path class="b" d="M362.05,38.4v1.2c0,3.47-1.75,5.64-5.64,6.75v.1c4.69,1.11,6.51,3.61,6.51,7.18v2.75c0,5.2-4.53,8-13.26,8h-13.74V30.65h13.18c9.05,0,12.94,2.55,12.94,7.76Zm-17.39-2.94v8.91h3.41c3.26,0,5.24-.87,5.24-3.57v-1.88c0-2.41-1.35-3.47-4.45-3.47h-4.21Zm0,13.73v10.36h5c2.94,0,4.53-.82,4.53-3.32v-2.94c0-3.13-1.67-4.1-5.64-4.1h-3.89Z"/><path class="b" d="M394.67,64.37h-8.82l-1.51-6.12h-10.72l-1.51,6.12h-8.02l8.89-33.73h12.79l8.89,33.73Zm-19.93-10.7h8.42l-4.13-17.06h-.16l-4.13,17.06Z"/><path class="b" d="M422.98,51.8v4.48c0,5.4-4.45,8.48-13.02,8.48s-13.02-3.08-13.02-8.48v-17.54c0-5.4,4.45-8.48,13.02-8.48s13.02,3.08,13.02,8.48v3.28h-8.26v-3.61c0-2.41-1.75-3.32-4.53-3.32s-4.53,.92-4.53,3.32v18.21c0,2.41,1.75,3.28,4.53,3.28s4.53-.87,4.53-3.28v-4.82h8.26Z"/><polygon class="b" points="427.3 64.31 427.3 30.6 435.87 30.61 435.87 44.2 447.62 30.61 458.49 30.61 443.82 48.1 457.45 64.31 447.12 64.31 435.98 50.97 435.9 64.31 427.3 64.31"/><path class="b" d="M44.68,45.05s.06-.08,.19-.14c1.23-.58,3.83-2.89,5.07-4.49s2.26-4,2.54-5.2c.28-1.2,.71-4.49-.33-7.21-1.04-2.72-2.32-4.37-3.67-5.82-1.36-1.45-3.93-2.96-4.68-3.38-.75-.42-3.9-1.51-4.42-1.64-.52-.12-4.39-.56-4.39-.56H16.28l.02,46.66h12.43v-15.55h3.8l11.21,15.55h14.09l-13.15-18.23Zm-4.87-10.04c-.39,1.13-.91,1.71-1.48,2.4-.57,.69-1.59,1.45-2.64,1.91-1.04,.46-1.6,.55-2.39,.62-.79,.07-4.61,0-4.61,0v-15.57h4.64s1.28,.23,1.53,.33c.25,.1,1.3,.42,2.19,1.1,.89,.68,1.09,.84,1.5,1.39,.41,.55,.53,.69,.64,.89,.1,.2,.42,.71,.51,.98s.31,.87,.39,1.2c.08,.33,.25,1.18,.24,1.98,0,.87-.13,1.65-.52,2.78Z"/><polygon class="b" points="120.24 26.83 105.96 41.02 105.96 26.75 93.52 26.74 93.52 63.28 105.96 63.28 105.99 48.49 120.94 63.28 136.59 63.28 117.53 44.25 135 26.81 120.24 26.83"/><path class="b" d="M160.83,58.45l5.56,4.81h2.66V26.82l-12.36-.02v23.4s-.25,.52-.4,.81-.7,1-1.15,1.44-.98,.9-1.7,1.28-1.54,.64-2.69,.69-2.22-.14-2.87-.54-1.18-1.3-1.4-1.79-.56-2.14-.6-2.74-.09-22.54-.09-22.54h-12.43v24.33s.13,1.72,.35,2.76,.6,1.99,.84,2.5,.75,1.48,.98,1.79,.96,1.31,1.44,1.76,1.4,1.3,2.24,1.78,2.25,1.18,3.31,1.49,3.18,.81,5.29,.81,3.16-.17,3.82-.29,2.66-.77,3.06-.97,2.53-1.27,3.01-1.59,2.5-1.85,3.14-2.71Z"/><path class="b" d="M71.97,26.04c-10.59,0-19.18,8.53-19.18,19.06s8.59,19.06,19.18,19.06,19.18-8.53,19.18-19.06-8.59-19.06-19.18-19.06Zm-.05,29c-3.41,0-6.18-4.48-6.18-10.01s2.76-10.01,6.18-10.01,6.18,4.48,6.18,10.01-2.76,10.01-6.18,10.01Z"/></svg>